<svg xmlns="http://www.w3.org/2000/svg" width="405.116" height="258.104" viewBox="277.504 94.92 405.116 258.104"><path fill="#6D5444" d="M528.832 297.023H361.728c-34.944-26.432-55.552-67.647-55.552-111.55h278.656c-.448 43.903-21.056 85.567-56 111.55z"/><path fill="#49382D" d="M579.008 285.824c21.504-29.12 33.6-64.064 33.6-100.352 38.08 0 64.96 37.184 52.864 73.472-12.096 36.288-56 49.728-86.464 26.88zM291.84 185.472v-27.776c0-4.032-3.136-7.168-7.168-7.168s-7.168 3.136-7.168 7.168v27.776c.448 54.656 26.88 105.728 71.68 137.087 2.688 1.79 4.928 2.687 8.064 2.687H533.76c3.137 0 5.376-.896 8.064-2.688 10.752-7.616 20.16-16.13 28.672-25.537 38.08 29.12 93.184 12.097 108.416-33.15 15.23-45.25-18.368-91.84-65.856-91.84v-13.89c0-4.03-3.136-7.167-7.168-7.167s-7.168 3.136-7.168 7.168v27.776c0 49.728-24.19 96.768-64.96 125.44H357.248c-41.216-29.12-65.408-75.712-65.408-125.888z"/><path fill="#49382D" d="M402.944 135.296c12.99-9.856 12.99-29.12 0-38.976-3.137-2.24-7.616-1.792-9.856 1.344s-1.792 7.616 1.344 9.856c5.375 4.032 5.375 12.544 0 16.576-12.992 9.856-12.992 29.12 0 38.976 3.136 2.24 7.616 1.792 9.856-1.344s1.792-7.616-1.344-9.856c-5.824-4.032-5.824-12.096 0-16.576zM495.68 135.296c12.992-9.856 12.992-29.12 0-38.976-3.136-2.24-7.615-1.792-9.855 1.344s-1.792 7.616 1.344 9.856c5.375 4.032 5.375 12.544 0 16.576-12.993 9.856-12.993 29.12 0 38.976 3.135 2.24 7.615 1.792 9.855-1.344s1.792-7.616-1.345-9.856c-5.376-4.032-5.376-12.096 0-16.576zM449.088 135.296c12.992-9.856 12.992-29.12 0-38.976-3.136-2.24-7.616-1.792-9.855 1.344-2.24 3.136-1.792 7.616 1.344 9.856 5.376 4.032 5.376 12.544 0 16.576-12.992 9.856-12.992 29.12 0 38.976 3.136 2.24 7.616 1.792 9.855-1.344 2.24-3.136 1.792-7.616-1.344-9.856-5.376-4.032-5.376-12.096 0-16.576zM291.84 353.024h306.432c7.616 0 13.89-6.272 13.89-13.89H277.504c.447 7.618 6.72 13.89 14.335 13.89z"/></svg>